<svg width="26" height="26" fill="none" xmlns="http://www.w3.org/2000/svg"><path d="M1 13.333c0-6.627 5.373-12 12-12s12 5.373 12 12c0 6.628-5.373 12-12 12s-12-5.372-12-12z" fill="#fff" stroke="#E3E3E3"/><path d="M13 10.144c.977 0 1.636.422 2.011.774l1.468-1.433c-.901-.837-2.074-1.352-3.478-1.352A5.196 5.196 0 008.355 11l1.682 1.306c.422-1.254 1.589-2.161 2.964-2.161z" fill="#EA4335"/><path d="M17.992 13.449c0-.428-.035-.74-.11-1.063H13v1.93h2.866c-.058.48-.37 1.201-1.063 1.687l1.64 1.27c.983-.906 1.549-2.241 1.549-3.824z" fill="#4285F4"/><path d="M10.043 14.362a3.2 3.2 0 01-.174-1.029c0-.358.064-.705.168-1.028l-1.682-1.306a5.205 5.205 0 00-.554 2.334c0 .838.202 1.63.554 2.335l1.688-1.306z" fill="#FBBC05"/><path d="M13 18.533c1.405 0 2.584-.462 3.444-1.26l-1.64-1.27c-.44.306-1.029.52-1.803.52-1.375 0-2.542-.907-2.958-2.161L8.36 15.668A5.187 5.187 0 0013 18.533z" fill="#34A853"/></svg>