<svg width="24" height="24" fill="none" xmlns="http://www.w3.org/2000/svg"><path d="M17.88 13.18h.005S16 15.945 14.415 18c-1.37 1.775-1.77 3.295-1.885 4.03a.546.546 0 01-.53.47.546.546 0 01-.53-.47c-.115-.735-.515-2.255-1.885-4.03-.21-.275-.425-.56-.64-.85L14.12 11l4.165-4.94c.46.965.715 2.045.715 3.19 0 1.45-.415 2.795-1.12 3.93z" fill="#48B564"/><path d="M14.119 11l-5.175 6.15c-1.41-1.89-2.83-3.97-2.83-3.97h.005a6.227 6.227 0 01-.4-.74l4.16-4.94a2.748 2.748 0 104.24 3.5z" fill="#FCC60E"/><path d="M14.202 2.37L9.917 7.46 6.637 4.6C7.917 3.01 9.847 2 12.002 2c.77 0 1.51.13 2.2.37z" fill="#2C85EB"/><path d="M9.915 7.46l-.035.04-4.16 4.94A7.39 7.39 0 015 9.25c0-1.77.615-3.395 1.635-4.65l3.28 2.86z" fill="#ED5748"/><path d="M14.119 11a2.748 2.748 0 10-4.24-3.5l4.32-5.13c1.795.61 3.265 1.955 4.085 3.69L14.119 11z" fill="#5695F6"/></svg>