<svg width="24" height="24" fill="none" xmlns="http://www.w3.org/2000/svg"><path d="M12 24c6.627 0 12-5.373 12-12S18.627 0 12 0 0 5.373 0 12s5.373 12 12 12z" fill="url(#paint0_linear_3787_336)"/><path d="M9.8 17.5c-.39 0-.323-.147-.458-.517L8.2 13.221 17 8" fill="#C8DAEA"/><path d="M9.8 17.5c.3 0 .433-.137.6-.3l1.6-1.556-1.995-1.203" fill="#A9C9DD"/><path d="M10.005 14.441l4.836 3.573c.552.304.95.147 1.087-.512l1.969-9.277c.201-.808-.308-1.174-.836-.935L5.5 11.748c-.788.316-.784.756-.143.952l2.966.926 6.868-4.332c.324-.197.621-.091.377.125" fill="url(#paint1_linear_3787_336)"/><defs><linearGradient id="paint0_linear_3787_336" x1="9.001" y1="1.001" x2="3.001" y2="15" gradientUnits="userSpaceOnUse"><stop stop-color="#37AEE2"/><stop offset="1" stop-color="#1E96C8"/></linearGradient><linearGradient id="paint1_linear_3787_336" x1="10.498" y1="12.737" x2="11.781" y2="16.885" gradientUnits="userSpaceOnUse"><stop stop-color="#EFF7FC"/><stop offset="1" stop-color="#fff"/></linearGradient></defs></svg>