<svg version="1.0" xmlns="http://www.w3.org/2000/svg" width="133.333" height="133.333" viewBox="0 0 100 100"><path d="M16.7.7c-.9.9-.9 4.3.1 4.3.4 0 .6 3.3.4 7.4-.3 6.3-.6 7.5-2.3 7.9-1.6.4-1.9 1.4-1.9 7.2 0 5.4-.4 7.3-2.5 10.3-1.4 2-2.8 5.4-3.1 7.4-.4 2-1.3 3.9-2 4.2-2.1.8-2.1 31.6 0 31.6 1.1 0 1.4 1.9 1.5 8.2.1 6.5.5 8.6 1.8 9.6 2.1 1.5 75.7 1.8 79.7.2 2.5-.9 2.6-1.3 2.6-9.4 0-6.1.4-8.5 1.4-8.9 1.9-.8 2-30.6 0-31.4C91.6 49 91 48 91 47c0-.9-1.3-4.4-3-7.6-2.3-4.6-3-7.2-3-12.1 0-5.3-.3-6.3-2-6.8-1.5-.5-2-1.6-2.1-4.3 0-2-.2-5.4-.3-7.5-.1-2 .2-3.7.6-3.7 1.5 0 .8-4.1-.8-4.7-2.2-.8-3.9 1.2-2.8 3.4.4 1 .8 5 .9 9 0 6.7-.1 7.2-2.2 7.8-1.9.4-2.2 1.1-1.9 3.1.4 2.1.2 2.4-1.2 1.9C60.3 20 44.6 19 32.5 22.7c-7.6 2.4-9.1 2.5-8.9.5.1-.7-.9-2-2.2-2.9-2.1-1.4-2.4-2.3-2.4-8.2 0-3.7.5-7.2 1-7.7.6-.6.8-1.8.4-2.7-.6-1.7-2.5-2.2-3.7-1z"/></svg>